<svg width="1200" height="900" viewBox="0 0 1200 900" fill="none" xmlns="http://www.w3.org/2000/svg">
  <rect width="1200" height="900" fill="#18181B"/>
  <rect x="120" y="120" width="960" height="660" rx="28" fill="#27272A"/>
  <rect x="180" y="180" width="360" height="520" rx="18" fill="#3F3F46"/>
  <rect x="580" y="180" width="440" height="260" rx="18" fill="#111827"/>
  <rect x="580" y="470" width="440" height="230" rx="18" fill="#1F2937"/>
  <circle cx="360" cy="330" r="100" fill="#DC2626" fill-opacity="0.85"/>
  <rect x="300" y="450" width="120" height="170" rx="16" fill="#A1A1AA"/>
  <rect x="620" y="220" width="180" height="26" rx="6" fill="#E4E4E7"/>
  <rect x="620" y="260" width="300" height="20" rx="6" fill="#A1A1AA"/>
  <rect x="620" y="300" width="260" height="20" rx="6" fill="#71717A"/>
  <rect x="620" y="520" width="260" height="22" rx="6" fill="#E4E4E7"/>
  <rect x="620" y="556" width="340" height="18" rx="6" fill="#A1A1AA"/>
  <rect x="620" y="590" width="220" height="18" rx="6" fill="#71717A"/>
  <text x="620" y="660" fill="#F4F4F5" font-family="Arial, sans-serif" font-size="28" font-weight="700">
    Equipe tecnica especializada
  </text>
</svg>
